M48
; DRILL file {KiCad 8.0.3} date 2024-11-29T16:43:19-0300
; FORMAT={-:-/ absolute / metric / decimal}
; #@! TF.CreationDate,2024-11-29T16:43:19-03:00
; #@! TF.GenerationSoftware,Kicad,Pcbnew,8.0.3
; #@! TF.FileFunction,Plated,1,2,PTH
FMAT,2
METRIC
; #@! TA.AperFunction,Plated,PTH,ComponentDrill
T1C0.762
; #@! TA.AperFunction,Plated,PTH,ComponentDrill
T2C0.800
; #@! TA.AperFunction,Plated,PTH,ComponentDrill
T3C0.900
; #@! TA.AperFunction,Plated,PTH,ComponentDrill
T4C0.950
; #@! TA.AperFunction,Plated,PTH,ViaDrill
T5C1.000
; #@! TA.AperFunction,Plated,PTH,ComponentDrill
T6C1.000
; #@! TA.AperFunction,Plated,PTH,ComponentDrill
T7C1.200
%
G90
G05
T1
X153.265Y-134.775
X153.265Y-150.015
X155.805Y-134.775
X155.805Y-150.015
X158.345Y-134.775
X158.345Y-150.015
X160.885Y-134.775
X160.885Y-150.015
X163.425Y-134.775
X163.425Y-150.015
X165.965Y-134.775
X165.965Y-150.015
X168.505Y-134.775
X168.505Y-150.015
X171.045Y-134.775
X171.045Y-150.015
X173.585Y-134.775
X173.585Y-150.015
X176.125Y-134.775
X176.125Y-150.015
X178.665Y-134.775
X178.665Y-150.015
X181.205Y-134.775
X181.205Y-150.015
X183.745Y-134.775
X183.745Y-150.015
X186.285Y-134.775
X186.285Y-150.015
X188.825Y-134.775
X188.825Y-150.015
X191.365Y-134.775
X191.365Y-150.015
X193.905Y-134.775
X193.905Y-150.015
X196.445Y-134.775
X196.445Y-150.015
X198.985Y-134.775
X198.985Y-150.015
X201.525Y-134.775
X201.525Y-150.015
X204.065Y-134.775
X204.065Y-150.015
X206.605Y-134.775
X206.605Y-150.015
X209.145Y-134.775
X209.145Y-150.015
X211.685Y-134.775
X211.685Y-150.015
T2
X131.5Y-155.065
X131.5Y-162.685
X136.3Y-155.155
X136.3Y-162.775
X138.84Y-155.155
X138.84Y-162.775
X145.19Y-168.25
X147.05Y-155.03
X147.05Y-162.65
X149.59Y-155.03
X149.59Y-162.65
X152.81Y-168.25
X217.314Y-133.15
X222.865Y-133.15
T3
X139.9Y-129.285
X139.9Y-131.825
X142.925Y-139.9
X142.975Y-145.525
X145.465Y-139.9
X145.515Y-145.525
T4
X130.95Y-168.425
X131.275Y-141.6
X131.275Y-144.1
X131.275Y-146.6
X131.275Y-149.1
X133.45Y-168.425
X135.95Y-168.425
X138.45Y-168.425
X171.35Y-166.525
X173.85Y-166.525
X176.35Y-166.525
X178.85Y-166.525
X201.6Y-159.625
X204.1Y-159.625
X206.6Y-159.625
X209.1Y-159.625
X210.075Y-125.75
X212.575Y-125.75
X215.075Y-125.75
X217.575Y-125.75
T5
X168.85Y-161.825
X185.85Y-139.8
X212.4Y-130.125
X222.8Y-140.275
T6
X159.675Y-168.325
X162.175Y-168.325
T7
X154.435Y-126.05
X156.975Y-126.05
X159.515Y-126.05
X162.055Y-126.05
X164.595Y-126.05
X167.135Y-126.05
X169.675Y-126.05
X172.215Y-126.05
X174.755Y-126.05
X177.295Y-126.05
X179.835Y-126.05
X182.375Y-126.05
M30
