M48
; DRILL file {KiCad 8.0.4} date 2024-08-25T15:03:43-0300
; FORMAT={-:-/ absolute / inch / decimal}
; #@! TF.CreationDate,2024-08-25T15:03:43-03:00
; #@! TF.GenerationSoftware,Kicad,Pcbnew,8.0.4
; #@! TF.FileFunction,Plated,1,2,PTH
FMAT,2
INCH
; #@! TA.AperFunction,Plated,PTH,ViaDrill
T1C0.0197
; #@! TA.AperFunction,Plated,PTH,ComponentDrill
T2C0.0315
; #@! TA.AperFunction,Plated,PTH,ComponentDrill
T3C0.0520
; #@! TA.AperFunction,Plated,PTH,ViaDrill
T4C0.1220
%
G90
G05
T1
X6.4173Y-4.1142
X7.0669Y-4.685
X7.4803Y-3.8386
X7.5394Y-3.4843
X7.5394Y-3.5827
X7.815Y-3.5236
X7.815Y-3.6614
X7.815Y-3.8386
X7.9331Y-4.7835
X8.189Y-4.1732
T2
X6.2992Y-3.4449
X6.2992Y-3.8386
X6.4764Y-4.6063
X6.4823Y-3.2843
X6.4823Y-3.3843
X6.4823Y-3.4843
X6.4823Y-3.5843
X6.4823Y-3.6843
X6.4823Y-3.7843
X6.4823Y-3.8843
X6.4823Y-3.9843
X6.5728Y-3.2843
X6.5728Y-3.3843
X6.5728Y-3.4843
X6.5728Y-3.5843
X6.5728Y-3.6843
X6.5728Y-3.7843
X6.5728Y-3.8843
X6.5728Y-3.9843
X6.5748Y-4.6063
X6.8504Y-4.5941
X6.8504Y-4.8941
X7.0941Y-5.0984
X7.2638Y-3.2827
X7.2638Y-3.3827
X7.2638Y-3.4827
X7.2638Y-3.5827
X7.2638Y-3.6827
X7.2638Y-3.7827
X7.2638Y-3.8827
X7.2638Y-3.9827
X7.3543Y-3.2827
X7.3543Y-3.3827
X7.3543Y-3.4827
X7.3543Y-3.5827
X7.3543Y-3.6827
X7.3543Y-3.7827
X7.3543Y-3.8827
X7.3543Y-3.9827
X7.3941Y-5.0984
X7.5289Y-4.378
X7.5289Y-4.678
X7.6289Y-4.378
X7.6289Y-4.678
X7.8833Y-4.378
X7.8833Y-4.678
X7.9833Y-4.378
X7.9833Y-4.678
T3
X5.9252Y-4.3504
X5.9252Y-4.5472
X5.9449Y-3.4252
X5.9449Y-3.622
X5.9449Y-3.8189
X6.4764Y-5.0984
X6.6732Y-5.0984
X6.8701Y-5.0984
X7.5984Y-5.0984
X7.7953Y-5.0984
X7.9921Y-5.0984
X8.1102Y-3.3661
X8.1102Y-3.563
X8.1102Y-3.7598
X8.1102Y-3.9567
X8.189Y-5.0984
T4
X6.063Y-4.0551
X6.063Y-4.9213
X7.185Y-4.9213
X8.2283Y-4.311
M30
